# xmcd
#
# Track frame offsets: 
#        150
#        14138
#        28208
#        42805
#        59075
#        72773
#        86359
#        102290
#        123471
#        147754
#
# Disc length: 2151 seconds
#
# Revision: 0
# Processed by: cddbd v1.5.2PL0 Copyright (c) Steve Scherf et al.
# Submitted via: ExactAudioCopy v1.2
#
DISCID=8c08650a
DTITLE=Jan Gerfast - Black and White
DYEAR=2018
DGENRE=Blues-Rock
TTITLE0=Howling Like a Hound
TTITLE1=Have Some Fun
TTITLE2=Rise and Shine
TTITLE3=Going to the Promised Land
TTITLE4=All I Wanna Say
TTITLE5=No Use to Stay
TTITLE6=It's Gonna Be All Right
TTITLE7=Worried Mind
TTITLE8=Checking Out
TTITLE9=Black and White
EXTD=
EXTT0=
EXTT1=
EXTT2=
EXTT3=
EXTT4=
EXTT5=
EXTT6=
EXTT7=
EXTT8=
EXTT9=
PLAYORDER=
